<svg width="31" height="32" viewBox="0 0 31 32" fill="none" xmlns="http://www.w3.org/2000/svg">
<g clip-path="url(#clip0_45_475)">
<path fill-rule="evenodd" clip-rule="evenodd" d="M23.3552 3.82838C23.2777 3.82838 23.1993 3.80698 23.1291 3.76226C20.8819 2.33394 18.2798 1.57899 15.6046 1.57899C15.2991 1.57899 14.9889 1.58895 14.6834 1.60824C14.3417 1.63027 13.9977 1.66504 13.6615 1.71187C13.4313 1.7424 13.2161 1.58196 13.1841 1.35009C13.152 1.11822 13.3138 0.90415 13.5453 0.871934C13.902 0.822339 14.267 0.785672 14.6294 0.762145C14.953 0.7418 15.2811 0.731201 15.6046 0.731201C18.4406 0.731201 21.1995 1.53172 23.5822 3.04672C23.7797 3.17198 23.8381 3.43395 23.7128 3.63149C23.6325 3.75886 23.4953 3.82838 23.3552 3.82838ZM19.5043 4.27432C19.4603 4.27432 19.4153 4.26733 19.3713 4.2527C18.5947 3.99539 17.7901 3.81906 16.9797 3.72877C15.3217 3.54458 13.6665 3.69528 12.1072 4.1711C11.8836 4.23934 11.647 4.11323 11.5791 3.8892C11.511 3.66518 11.6369 3.42843 11.8605 3.36019C13.5297 2.85088 15.3016 2.68789 17.0733 2.8865C17.9419 2.98314 18.8048 3.17198 19.6371 3.44794C19.859 3.52149 19.9795 3.76141 19.9059 3.98331C19.8472 4.16155 19.6817 4.27432 19.5043 4.27432ZM25.7461 5.72742C25.639 5.72742 25.532 5.68715 25.4496 5.60619C25.332 5.49046 25.2123 5.37707 25.0905 5.26581C24.9182 5.1079 24.9059 4.83979 25.0633 4.66685C25.2209 4.49432 25.4886 4.48181 25.6613 4.6395C25.7905 4.75776 25.9174 4.87814 26.0422 5.00086C26.2093 5.16491 26.2118 5.43323 26.0481 5.60026C25.9653 5.68504 25.8555 5.72742 25.7461 5.72742ZM24.2515 7.16485C24.1453 7.16485 24.039 7.12522 23.9569 7.04531C23.8392 6.93107 23.7192 6.81874 23.5968 6.70938C23.4225 6.55317 23.4075 6.28526 23.5632 6.11083C23.7193 5.9364 23.9864 5.92114 24.1609 6.07714C24.2918 6.19456 24.4201 6.3143 24.5462 6.4368C24.7141 6.59958 24.7181 6.8679 24.5553 7.03619C24.4723 7.12182 24.3621 7.16485 24.2515 7.16485ZM3.84966 7.6288C3.76354 7.6288 3.677 7.60272 3.6021 7.54846C3.41254 7.41112 3.37022 7.14598 3.50689 6.9565C5.0529 4.81499 7.13506 3.11242 9.52825 2.03277C9.74174 1.93634 9.99225 2.03171 10.0879 2.24514C10.1839 2.45856 10.0889 2.70973 9.87588 2.80574C7.61726 3.82456 5.6521 5.43176 4.19305 7.4533C4.1101 7.56797 3.98084 7.6288 3.84966 7.6288ZM13.93 7.97003C13.7336 7.97003 13.5578 7.83269 13.5161 7.63261C13.4683 7.40349 13.6153 7.17904 13.8441 7.13115C14.0197 7.09448 14.1972 7.06333 14.3719 7.0383C14.6028 7.00546 14.8175 7.1657 14.8508 7.39778C14.884 7.62942 14.7232 7.84413 14.4917 7.87741C14.3347 7.89987 14.1748 7.92806 14.0167 7.96114C13.9877 7.96706 13.9585 7.97003 13.93 7.97003ZM1.51593 12.6935C1.48292 12.6935 1.4497 12.6899 1.41627 12.6816C1.18903 12.6267 1.04939 12.3978 1.10419 12.17C1.14545 11.9991 1.18967 11.8294 1.23664 11.6607C1.29969 11.4352 1.53243 11.3035 1.75797 11.366C1.98309 11.429 2.1147 11.663 2.05186 11.8883C2.00764 12.0475 1.96575 12.2077 1.92703 12.3692C1.88005 12.5633 1.70698 12.6935 1.51593 12.6935ZM10.2258 12.9847C10.1539 12.9847 10.0811 12.9665 10.0142 12.9279C9.81198 12.8105 9.743 12.551 9.86001 12.3484C9.95078 12.1918 10.0485 12.0369 10.1511 11.8889C10.284 11.6967 10.5483 11.6484 10.7398 11.7819C10.9319 11.9152 10.9799 12.1793 10.8466 12.3717C10.7571 12.501 10.6718 12.6362 10.5927 12.7732C10.5142 12.909 10.372 12.9847 10.2258 12.9847ZM21.0947 13.1947C20.9432 13.1947 20.7963 13.1131 20.7205 12.9694C20.6883 12.9086 20.655 12.8482 20.6203 12.7882C20.5806 12.7185 20.5389 12.6517 20.4969 12.585C20.4435 12.5002 20.3889 12.4148 20.3305 12.3323C20.3096 12.3024 20.2889 12.2753 20.268 12.2484L20.2317 12.2001C19.887 11.7391 19.4925 11.3444 19.0587 11.0267L18.9923 10.9767C18.9707 10.9602 18.9493 10.9439 18.927 10.9282C18.8427 10.8684 18.755 10.8131 18.6675 10.7578C18.6041 10.7181 18.5401 10.6779 18.4742 10.6401C18.3979 10.5963 18.3213 10.5549 18.2438 10.5149C18.1566 10.4699 18.067 10.4267 17.976 10.3856C17.9048 10.3532 17.8465 10.3267 17.7877 10.3025C17.6701 10.2544 17.5429 10.2078 17.4102 10.1643L17.355 10.145C17.3377 10.1387 17.3203 10.1325 17.3025 10.1272C16.9536 10.0202 16.5929 9.94622 16.2288 9.90722C16.0997 9.89366 15.9681 9.88899 15.8291 9.8839C15.7855 9.88221 15.7517 9.8801 15.718 9.87776C15.6831 9.87542 15.648 9.87267 15.6122 9.87267C14.5234 9.87267 13.4683 10.1736 12.5541 10.7436C12.3554 10.8669 12.0945 10.8063 11.9711 10.6075C11.8478 10.4087 11.9085 10.1474 12.107 10.0236C13.1556 9.37014 14.3652 9.0249 15.6048 9.0249C15.6689 9.0251 15.7225 9.02827 15.776 9.0321C15.8014 9.03379 15.8268 9.03549 15.8524 9.03654C16.0066 9.04206 16.159 9.04736 16.3181 9.0641C16.7363 9.10882 17.1502 9.1936 17.5494 9.31632C17.5784 9.32522 17.6083 9.33539 17.6381 9.34598L17.676 9.35934C17.8254 9.4083 17.9715 9.46192 18.108 9.51787C18.1773 9.5465 18.2451 9.57701 18.3126 9.60774C18.4281 9.6601 18.531 9.70947 18.6321 9.76161C18.7219 9.80824 18.8096 9.8553 18.8955 9.90489C18.9702 9.94771 19.0438 9.9937 19.1174 10.0399C19.2185 10.1035 19.3182 10.1671 19.415 10.2353C19.4454 10.2569 19.4755 10.2796 19.5053 10.3025L19.5576 10.3417C20.0597 10.7096 20.5139 11.1636 20.9089 11.6918L20.9411 11.734C20.9686 11.77 20.9958 11.8063 21.0219 11.8432C21.0877 11.9362 21.1505 12.0341 21.2128 12.1324C21.2614 12.2096 21.3086 12.2863 21.3537 12.3647C21.3928 12.4326 21.4312 12.5021 21.4683 12.5724C21.5777 12.7791 21.499 13.0358 21.2925 13.1456C21.2293 13.179 21.1616 13.1947 21.0947 13.1947ZM3.28537 14.5196C3.26759 14.5196 3.24982 14.5185 3.23183 14.5164C2.99974 14.487 2.83577 14.275 2.86474 14.0427C3.3078 10.5255 5.21689 7.31258 8.10241 5.22808C8.2922 5.09138 8.55689 5.13397 8.69314 5.32387C8.83004 5.51357 8.78708 5.7785 8.59751 5.91563C5.90177 7.86322 4.11815 10.864 3.7045 14.1487C3.67743 14.3632 3.49526 14.5196 3.28537 14.5196ZM23.7523 14.648C23.5469 14.648 23.3667 14.498 23.3345 14.2882C23.3227 14.2093 23.3093 14.1309 23.2933 14.0535C23.2821 14.0008 23.2678 13.9493 23.2536 13.8975C23.2427 13.8566 23.2315 13.8157 23.2211 13.7746L23.2062 13.7138C23.1693 13.5631 23.1341 13.4209 23.0913 13.2848C23.0749 13.2333 23.0552 13.1826 23.0357 13.1318C23.0211 13.0936 23.0067 13.0555 22.9928 13.0171L22.9789 12.9775C22.9251 12.827 22.8745 12.6846 22.8157 12.5491C22.7945 12.4995 22.7702 12.4516 22.7465 12.4035C22.7289 12.3684 22.7113 12.3332 22.6947 12.2976L22.6801 12.2666C22.6102 12.12 22.5443 11.9813 22.471 11.8495C22.4446 11.802 22.4157 11.7558 22.3865 11.7096L22.3286 11.6157C22.2478 11.4809 22.156 11.3288 22.0609 11.191C22.0297 11.1465 21.9963 11.1026 21.9625 11.0589L21.8985 10.9744C21.7968 10.8372 21.6961 10.7039 21.5902 10.5789C21.552 10.5335 21.511 10.4901 21.4707 10.4464L21.4077 10.3777C21.2993 10.2588 21.1835 10.1332 21.0643 10.0174C21.0187 9.97334 20.9715 9.9316 20.9243 9.88942L20.8589 9.8305C20.7417 9.72474 20.6158 9.61283 20.4872 9.51067C20.4317 9.46616 20.3752 9.42483 20.3187 9.3835L20.2565 9.33773C20.1409 9.25253 20.0032 9.15248 19.8633 9.06155C19.7912 9.01493 19.7166 8.97106 19.6421 8.92698L19.607 8.90598C19.4953 8.83965 19.3488 8.75381 19.1992 8.67645L19.1749 8.66394C18.967 8.55733 18.8848 8.30173 18.9912 8.09338C19.0976 7.88546 19.3521 7.80216 19.5608 7.90941L19.5897 7.92446C19.7566 8.01051 19.9177 8.10483 20.0387 8.1771L20.0726 8.19682C20.1569 8.24683 20.2409 8.29664 20.3235 8.35005C20.4824 8.45326 20.6328 8.56242 20.7589 8.65547L20.8184 8.69912C20.8845 8.74766 20.9504 8.79598 21.0145 8.84749C21.1605 8.96363 21.2987 9.08635 21.4261 9.20144L21.4872 9.25613C21.543 9.30614 21.5987 9.35595 21.6526 9.4081C21.7897 9.54077 21.9153 9.67768 22.0328 9.80654L22.0905 9.86928C22.1397 9.92227 22.1886 9.97504 22.2353 10.0302C22.3574 10.1743 22.4669 10.3192 22.5771 10.4676L22.6344 10.5433C22.6758 10.5973 22.7171 10.6514 22.756 10.7075C22.8669 10.868 22.9659 11.0324 23.0533 11.1778L23.1041 11.2599C23.1405 11.3181 23.1766 11.3764 23.2102 11.4366C23.2968 11.5924 23.3715 11.7499 23.4441 11.9023L23.504 12.0254C23.5347 12.0871 23.5651 12.1488 23.5926 12.2126C23.6621 12.3734 23.72 12.5356 23.7757 12.6922L23.7896 12.731C23.8013 12.7634 23.8137 12.796 23.8262 12.8285C23.8513 12.8944 23.8763 12.9607 23.8979 13.0284C23.9496 13.1913 23.9893 13.3539 24.028 13.5112L24.0427 13.5707C24.0512 13.6053 24.0606 13.6396 24.0699 13.6739C24.0886 13.742 24.107 13.81 24.1214 13.8797C24.1408 13.9719 24.1569 14.0656 24.1713 14.1601C24.2064 14.3916 24.0477 14.6078 23.8169 14.6432C23.795 14.6466 23.7737 14.648 23.7523 14.648ZM30.043 17.2982C30.0317 17.2982 30.0198 17.2979 30.008 17.2968C29.7752 17.2774 29.6017 17.0728 29.6209 16.8396C29.6529 16.452 29.6689 16.0576 29.6689 15.6675C29.6693 13.5489 29.2115 11.5127 28.3089 9.61494C28.2085 9.40363 28.2979 9.15058 28.5089 9.0499C28.7193 8.94965 28.9725 9.03867 29.0729 9.25019C30.0304 11.2628 30.5155 13.4219 30.5153 15.6675C30.5153 16.0806 30.4982 16.4979 30.4645 16.9091C30.4464 17.1305 30.2613 17.2982 30.043 17.2982ZM7.44735 17.5113C7.2453 17.5113 7.06673 17.3659 7.03097 17.1592C6.94634 16.6702 6.90338 16.168 6.90338 15.6664C6.90338 15.414 6.91439 15.1569 6.93598 14.9024C7.17887 12.0589 8.82876 9.50685 11.3493 8.07558C11.5529 7.96049 11.8108 8.03192 11.9261 8.23539C12.0412 8.43907 11.9699 8.69785 11.7668 8.81336C9.48889 10.1064 7.99831 12.4097 7.77954 14.9747C7.75966 15.2052 7.7497 15.438 7.7497 15.6664C7.7497 16.1196 7.78842 16.5732 7.86481 17.015C7.90479 17.2457 7.75034 17.4651 7.51993 17.5046C7.49559 17.5091 7.47148 17.5113 7.44735 17.5113ZM3.2733 17.5731C3.06215 17.5731 2.87956 17.4148 2.85375 17.1995C2.83302 17.0254 2.81588 16.85 2.80212 16.674C2.78393 16.4409 2.95826 16.2371 3.19122 16.2188C3.42206 16.2001 3.6277 16.375 3.64612 16.6086C3.65881 16.7728 3.67468 16.9364 3.69414 17.0985C3.72186 17.3313 3.55618 17.5424 3.32409 17.5702C3.30695 17.5721 3.29002 17.5731 3.2733 17.5731ZM27.7128 18.8636C27.6814 18.8636 27.6499 18.8608 27.6181 18.8536C27.3902 18.8014 27.2477 18.5742 27.2997 18.3459C27.4984 17.4726 27.5993 16.5715 27.5993 15.6675C27.5993 15.1631 27.5675 14.6502 27.5051 14.1426C27.2777 12.291 26.5974 10.488 25.5381 8.92845C25.4067 8.73494 25.4568 8.47128 25.6501 8.33966C25.8427 8.20826 26.1064 8.25786 26.2377 8.45157C27.3725 10.1219 28.1014 12.054 28.3453 14.0391C28.4118 14.5806 28.4456 15.1285 28.4456 15.6675C28.4456 16.6348 28.3377 17.5995 28.1249 18.5344C28.08 18.7308 27.9057 18.8636 27.7128 18.8636ZM16.639 22.2179C16.4361 22.2179 16.2569 22.0713 16.222 21.8643C16.1835 21.6334 16.3388 21.4148 16.5694 21.3758C17.7659 21.1745 18.8488 20.6158 19.7006 19.7604L19.7126 19.7454C19.731 19.724 19.7494 19.7024 19.7691 19.6824C19.904 19.5425 20.0366 19.3892 20.1641 19.2259L20.2 19.1782C20.3032 19.043 20.4045 18.8974 20.5006 18.7452C20.5224 18.71 20.5443 18.6731 20.5662 18.6363C20.6421 18.5102 20.7161 18.374 20.7875 18.2302C20.812 18.1803 20.8374 18.1297 20.8611 18.0776C20.9142 17.9625 20.9669 17.8336 21.0227 17.6838L21.0421 17.6316C21.0587 17.5881 21.0752 17.5449 21.0896 17.5006C21.1347 17.3665 21.1726 17.2243 21.2035 17.1028L21.224 17.026C21.235 16.9849 21.2462 16.9443 21.2553 16.9027C21.272 16.8243 21.2864 16.744 21.299 16.6633C21.3357 16.4323 21.552 16.2752 21.7833 16.311C22.0142 16.3472 22.1717 16.5648 22.135 16.7961C22.1198 16.8926 22.1027 16.9886 22.0822 17.0833C22.0699 17.14 22.0553 17.1937 22.0406 17.2473L22.0232 17.3139C21.9885 17.4496 21.9457 17.6097 21.8926 17.7688C21.8745 17.8228 21.8542 17.8771 21.8339 17.9313L21.8158 17.9796C21.7525 18.1494 21.6918 18.2976 21.6301 18.4315C21.6032 18.4907 21.5745 18.5488 21.5457 18.607C21.4641 18.7716 21.3789 18.928 21.2923 19.072C21.268 19.1131 21.2429 19.1552 21.2168 19.1971C21.1064 19.3716 20.9904 19.5385 20.8715 19.694L20.8313 19.7475C20.6849 19.935 20.5328 20.1105 20.3785 20.2705L20.3555 20.2969C20.3405 20.3142 20.3254 20.3316 20.3096 20.3484C19.3225 21.3403 18.0811 21.9808 16.7097 22.2118C16.6861 22.216 16.6621 22.2179 16.639 22.2179ZM10.5912 22.3889C10.2373 22.3889 9.90529 22.2523 9.63087 21.9931C9.31815 21.6979 9.02511 21.3764 8.75958 21.0387C8.61486 20.8547 8.64638 20.5881 8.83025 20.4435C9.0141 20.2988 9.27985 20.3299 9.42436 20.5144C9.6643 20.8195 9.92919 21.1094 10.2114 21.3763C10.3274 21.4859 10.4552 21.5412 10.5912 21.5412C10.9171 21.5412 11.2368 21.2299 11.2368 20.9121C11.2368 20.7915 11.1896 20.6737 11.0967 20.562C11.0243 20.4747 10.9488 20.3912 10.8733 20.3142C10.1289 19.5561 9.57247 18.6225 9.26314 17.6134C9.19458 17.3894 9.32026 17.1524 9.54369 17.0838C9.76713 17.0155 10.0037 17.1409 10.0724 17.3646C10.3418 18.2441 10.8274 19.058 11.4761 19.7195C11.5681 19.8128 11.6595 19.9139 11.7473 20.0196C11.9671 20.2843 12.0831 20.5929 12.0831 20.9121C12.0831 21.6987 11.3859 22.3889 10.5912 22.3889ZM4.00644 24.7865C3.87758 24.7865 3.75063 24.7276 3.66748 24.6169C1.722 22.0192 0.693726 18.9248 0.693726 15.6677C0.693726 15.3663 0.702824 15.0624 0.720596 14.7644C0.73456 14.5304 0.932388 14.3498 1.16809 14.3666C1.40125 14.3804 1.57919 14.5811 1.56522 14.8148C1.54851 15.0961 1.54005 15.3833 1.54005 15.6677C1.54005 18.7396 2.50993 21.6582 4.34433 24.1083C4.48482 24.2952 4.44694 24.5608 4.25991 24.7014C4.18394 24.759 4.09466 24.7865 4.00644 24.7865ZM16.6395 25.1718C16.4057 25.1718 16.2163 24.9822 16.2163 24.748V23.8883C16.2163 23.6748 16.3752 23.4945 16.587 23.468C18.4043 23.2406 20.0963 22.3705 21.3513 21.019L21.3941 20.972C21.7256 20.6112 22.0288 20.2056 22.3222 19.7304C22.3569 19.6748 22.3912 19.6196 22.4237 19.5635C22.4853 19.455 22.5443 19.3438 22.6014 19.2312C22.6515 19.1336 22.6982 19.0347 22.7438 18.9352L22.7704 18.8771C22.8072 18.7964 22.8443 18.7161 22.8777 18.6337C22.9475 18.4633 23.0113 18.2912 23.0672 18.1219C23.1406 17.9 23.3787 17.7784 23.6019 17.8531C23.8237 17.9267 23.944 18.1662 23.8707 18.3888C23.8086 18.5761 23.7382 18.7664 23.6609 18.9552C23.623 19.0483 23.5814 19.1392 23.5397 19.2305L23.5131 19.2884C23.4619 19.4003 23.4102 19.5091 23.3552 19.6169C23.2921 19.7408 23.227 19.8638 23.1577 19.9849C23.12 20.051 23.0806 20.1144 23.0414 20.1777C22.72 20.6979 22.3851 21.1452 22.0181 21.5448L21.9717 21.5958C20.6664 23.0016 18.9349 23.9364 17.0625 24.2545V24.748C17.0625 24.9822 16.8731 25.1718 16.6395 25.1718ZM10.4727 27.418C10.4141 27.418 10.3549 27.4056 10.298 27.3799C7.87073 26.275 5.87342 24.4713 4.52162 22.1652C4.40335 21.963 4.47086 21.7033 4.67228 21.5846C4.87412 21.4664 5.1333 21.5342 5.25158 21.7358C6.5145 23.891 8.38063 25.5756 10.6479 26.608C10.8608 26.7049 10.9549 26.9563 10.8585 27.1692C10.7874 27.3254 10.6335 27.418 10.4727 27.418ZM20.4673 27.5328C20.3027 27.5328 20.1464 27.4358 20.0779 27.2748C19.9862 27.059 20.0864 26.8104 20.3011 26.7187C22.5925 25.7409 24.4977 24.1004 25.8117 21.9756C25.9345 21.7766 26.1952 21.7152 26.3941 21.8385C26.5931 21.9617 26.6544 22.223 26.5312 22.422C25.1251 24.6966 23.0854 26.452 20.6331 27.4985C20.5789 27.5217 20.5225 27.5328 20.4673 27.5328ZM16.6395 28.2334C16.4057 28.2334 16.2163 28.044 16.2163 27.8096V27.2993C16.2163 27.0654 16.4057 26.8755 16.6395 26.8755C16.8731 26.8755 17.0625 27.0654 17.0625 27.2993V27.8096C17.0625 28.044 16.8731 28.2334 16.6395 28.2334ZM14.5698 28.4846C14.5581 28.4846 14.5463 28.4841 14.5346 28.4832C14.4731 28.478 14.4115 28.4721 14.3499 28.4664C14.1174 28.4438 13.9471 28.2366 13.9699 28.0035C13.9822 27.8761 14.0499 27.7672 14.1466 27.6985V21.4996C14.1466 21.2654 14.336 21.0758 14.5698 21.0758C14.8034 21.0758 14.9929 21.2654 14.9929 21.4996V28.0606C14.9929 28.1793 14.9432 28.2923 14.8563 28.3726C14.7778 28.4449 14.6756 28.4846 14.5698 28.4846ZM22.5905 28.8044C22.4414 28.8044 22.2966 28.7254 22.2195 28.5852C22.1067 28.3801 22.1811 28.1222 22.3857 28.0092C25.3035 26.3982 27.5632 23.7993 28.7481 20.6908C28.8315 20.4716 29.0755 20.3622 29.2945 20.446C29.5128 20.5296 29.6222 20.7745 29.5389 20.9931C28.2822 24.2886 25.8872 27.044 22.7945 28.7518C22.7296 28.7875 22.6595 28.8044 22.5905 28.8044ZM19.7779 29.9883C19.5958 29.9883 19.4278 29.8697 19.3728 29.6864C19.3054 29.4619 19.4323 29.2257 19.6561 29.1584C19.8144 29.1107 19.9713 29.0604 20.1273 29.0075C20.3499 28.9313 20.5891 29.0515 20.664 29.2731C20.739 29.495 20.6201 29.735 20.3989 29.8105C20.2337 29.8665 20.0673 29.9196 19.9 29.97C19.8593 29.982 19.8182 29.9883 19.7779 29.9883ZM13.8764 30.4967C13.8597 30.4967 13.8428 30.4958 13.8259 30.494C11.2131 30.1825 8.72044 29.176 6.61754 27.5832C6.43114 27.4417 6.39412 27.176 6.53503 26.9891C6.67594 26.8024 6.94105 26.7657 7.12788 26.9068C9.11143 28.4094 11.4621 29.3584 13.9259 29.652C14.1578 29.6798 14.3235 29.8907 14.2962 30.1232C14.2704 30.3385 14.0878 30.4967 13.8764 30.4967Z" fill="#8B722E"/>
<path fill-rule="evenodd" clip-rule="evenodd" d="M11.4868 6.72315C11.3241 6.72315 11.1692 6.62862 11.0994 6.47009C11.0053 6.2558 11.1022 6.0055 11.3159 5.91118C11.4773 5.83996 11.6406 5.77257 11.8055 5.7092C12.023 5.62548 12.268 5.73379 12.3522 5.95251C12.4362 6.17104 12.3274 6.41625 12.1091 6.50019C11.9571 6.5591 11.8063 6.6212 11.6573 6.68691C11.6017 6.71128 11.5439 6.72315 11.4868 6.72315ZM23.4875 9.57532C23.3655 9.57532 23.2443 9.52275 23.1607 9.42102C21.8346 7.80811 20.0621 6.68097 18.0346 6.16107C17.6624 6.06569 17.2831 5.99152 16.9071 5.94086C16.6754 5.90928 16.5131 5.69585 16.5442 5.46398C16.5757 5.23168 16.7911 5.0706 17.0202 5.10049C17.4287 5.1556 17.8403 5.23612 18.2442 5.33977C20.4472 5.9046 22.373 7.12945 23.8141 8.88204C23.9626 9.06262 23.9368 9.32988 23.7563 9.47867C23.6776 9.54374 23.5823 9.57532 23.4875 9.57532ZM5.42652 17.0125C5.21008 17.0125 5.02537 16.8469 5.00548 16.6268C4.97713 16.312 4.96273 15.9914 4.96252 15.6735C4.96252 14.7843 5.07508 13.8925 5.29745 13.0226C5.88564 10.7207 7.182 8.73219 9.04644 7.2723C9.23009 7.12819 9.49627 7.1604 9.64014 7.34521C9.78422 7.52961 9.75185 7.79603 9.56756 7.93993C7.85187 9.28388 6.65897 11.114 6.11732 13.2329C5.91252 14.034 5.80884 14.8553 5.80884 15.6735C5.80905 15.9655 5.8224 16.261 5.84862 16.5504C5.86936 16.7836 5.69798 16.9895 5.46504 17.0108C5.45212 17.0119 5.43921 17.0125 5.42652 17.0125ZM23.3837 22.7303C23.2866 22.7303 23.1888 22.6972 23.1093 22.6292C22.9314 22.4772 22.9103 22.2093 23.0619 22.0316C24.0355 20.8887 24.7192 19.5656 25.0941 18.0989C25.2987 17.298 25.4026 16.477 25.4026 15.6586C25.4026 14.708 25.2639 13.7632 24.9898 12.8503C24.9226 12.6263 25.0495 12.3895 25.2731 12.3224C25.4976 12.2554 25.7331 12.3821 25.8002 12.6062C26.0983 13.5983 26.249 14.6254 26.249 15.6586C26.249 16.5477 26.1362 17.4396 25.9139 18.3092C25.5069 19.9023 24.7639 21.3399 23.7058 22.5816C23.622 22.68 23.5032 22.7303 23.3837 22.7303ZM21.084 24.7295C20.9442 24.7295 20.8074 24.66 20.7266 24.5327C20.6013 24.3356 20.6597 24.0732 20.8568 23.9479C20.9944 23.8599 21.1298 23.7693 21.2626 23.6749C21.4538 23.5402 21.7178 23.5858 21.8525 23.7768C21.9874 23.968 21.9418 24.2322 21.7512 24.3677C21.6067 24.4695 21.46 24.5684 21.3107 24.6634C21.2405 24.7079 21.1619 24.7295 21.084 24.7295ZM12.254 25.7591C12.2081 25.7591 12.1613 25.7517 12.1156 25.7359C9.57603 24.8559 7.47948 23.0573 6.21169 20.6722C6.10209 20.466 6.18017 20.2093 6.38667 20.0989C6.59296 19.9892 6.84897 20.0679 6.959 20.2744C8.12564 22.4695 10.0553 24.1248 12.3924 24.9349C12.6133 25.0112 12.7303 25.2528 12.6539 25.4741C12.5932 25.6493 12.4294 25.7591 12.254 25.7591Z" fill="#8B722E"/>
<path fill-rule="evenodd" clip-rule="evenodd" d="M14.8396 15.2673C14.9136 15.0617 14.854 14.8318 14.6898 14.6885C14.2772 14.3278 14.1094 13.7877 14.2408 13.243C14.3616 12.742 14.7801 12.3276 15.2822 12.2119C15.3884 12.1873 15.4942 12.1748 15.5983 12.1725C15.6057 12.1723 15.6129 12.1714 15.6203 12.1717C15.6279 12.1714 15.6351 12.1723 15.6425 12.1725C15.7466 12.1748 15.8524 12.1873 15.9586 12.2119C16.4607 12.3276 16.8792 12.742 17 13.243C17.1314 13.7877 16.9637 14.3278 16.5511 14.6885C16.3867 14.8318 16.3272 15.0617 16.4013 15.2673L17.5624 18.4951H15.6296H15.611H13.6784L14.8396 15.2673ZM14.1181 19.5548H15.611H15.6296H17.1227H17.8667C18.1411 19.5548 18.3994 19.4204 18.5573 19.1951C18.6702 19.0338 18.7213 18.8397 18.7072 18.6477C18.7141 18.5735 18.7059 18.4969 18.6792 18.4225L17.5274 15.2207C17.9077 14.7725 18.1205 14.2017 18.1205 13.6072C18.1205 12.8425 17.7778 12.1305 17.1802 11.6539C17.0728 11.5685 16.9581 11.4964 16.8405 11.4307C16.833 11.4262 16.8251 11.4222 16.8174 11.418C16.7307 11.3707 16.6418 11.3289 16.5504 11.2925C16.536 11.2868 16.5219 11.2802 16.5073 11.2747C16.2455 11.1761 15.9688 11.1225 15.6863 11.1159C15.6641 11.1153 15.6423 11.1125 15.6203 11.1125C15.5985 11.1125 15.5763 11.1153 15.5545 11.1159C15.2721 11.1225 14.9951 11.1761 14.7336 11.2747C14.719 11.2802 14.7048 11.2868 14.6902 11.2925C14.599 11.3289 14.5102 11.3707 14.4234 11.418C14.4158 11.4222 14.408 11.4262 14.4004 11.4307C14.2827 11.4964 14.168 11.5685 14.0608 11.6539C13.463 12.1305 13.1203 12.8425 13.1203 13.6072C13.1203 14.2017 13.3331 14.7725 13.7136 15.2207L12.5615 18.4225C12.5346 18.4969 12.5268 18.5735 12.5336 18.6474C12.5194 18.8397 12.5702 19.0338 12.6836 19.1951C12.8414 19.4204 13.0996 19.5548 13.3742 19.5548H13.6784H14.1181Z" fill="#8B722E"/>
</g>
<defs>
<clipPath id="clip0_45_475">
<rect width="30.4" height="32" fill="white" transform="translate(0.599976)"/>
</clipPath>
</defs>
</svg>
