<svg width="20" height="21" viewBox="0 0 20 21" fill="none" xmlns="http://www.w3.org/2000/svg">
<g opacity="0.9">
<path d="M7.29165 6.33325C7.12589 6.33325 6.96692 6.3991 6.8497 6.51631C6.73249 6.63352 6.66665 6.79249 6.66665 6.95825C6.66665 7.12401 6.73249 7.28298 6.8497 7.40019C6.96692 7.5174 7.12589 7.58325 7.29165 7.58325H13.5416C13.7074 7.58325 13.8664 7.5174 13.9836 7.40019C14.1008 7.28298 14.1666 7.12401 14.1666 6.95825C14.1666 6.79249 14.1008 6.63352 13.9836 6.51631C13.8664 6.3991 13.7074 6.33325 13.5416 6.33325H7.29165ZM5.83331 10.2916C5.83331 10.1258 5.89916 9.96685 6.01637 9.84964C6.13358 9.73243 6.29255 9.66659 6.45831 9.66659H11.875C12.0407 9.66659 12.1997 9.73243 12.3169 9.84964C12.4341 9.96685 12.5 10.1258 12.5 10.2916C12.5 10.4573 12.4341 10.6163 12.3169 10.7335C12.1997 10.8507 12.0407 10.9166 11.875 10.9166H6.45831C6.29255 10.9166 6.13358 10.8507 6.01637 10.7335C5.89916 10.6163 5.83331 10.4573 5.83331 10.2916ZM8.12498 12.9999C7.95922 12.9999 7.80025 13.0658 7.68304 13.183C7.56583 13.3002 7.49998 13.4592 7.49998 13.6249C7.49998 13.7907 7.56583 13.9497 7.68304 14.0669C7.80025 14.1841 7.95922 14.2499 8.12498 14.2499H13.5416C13.7074 14.2499 13.8664 14.1841 13.9836 14.0669C14.1008 13.9497 14.1666 13.7907 14.1666 13.6249C14.1666 13.4592 14.1008 13.3002 13.9836 13.183C13.8664 13.0658 13.7074 12.9999 13.5416 12.9999H8.12498Z" fill="#0A2262" fill-opacity="0.65"/>
<path d="M1.66669 3.62508C1.66669 2.82008 2.32002 2.16675 3.12502 2.16675H16.875C17.68 2.16675 18.3334 2.82008 18.3334 3.62508V17.3751C18.3334 17.7619 18.1797 18.1328 17.9062 18.4063C17.6327 18.6798 17.2618 18.8334 16.875 18.8334H3.12502C2.73825 18.8334 2.36731 18.6798 2.09382 18.4063C1.82033 18.1328 1.66669 17.7619 1.66669 17.3751V3.62508ZM3.12502 3.41675C3.06977 3.41675 3.01678 3.4387 2.97771 3.47777C2.93864 3.51684 2.91669 3.56983 2.91669 3.62508V17.3751C2.91669 17.4901 3.01002 17.5834 3.12502 17.5834H16.875C16.9303 17.5834 16.9833 17.5615 17.0223 17.5224C17.0614 17.4833 17.0834 17.4303 17.0834 17.3751V3.62508C17.0834 3.56983 17.0614 3.51684 17.0223 3.47777C16.9833 3.4387 16.9303 3.41675 16.875 3.41675H3.12502Z" fill="#0A2262" fill-opacity="0.65"/>
</g>
</svg>
