<svg width="48" height="48" viewBox="0 0 48 48" fill="none" xmlns="http://www.w3.org/2000/svg">
<path fill-rule="evenodd" clip-rule="evenodd" d="M21.8872 2.5H26.1128C29.7884 2.49996 32.6996 2.49994 34.978 2.80628C37.3228 3.12152 39.2208 3.78576 40.7176 5.28248C42.2142 6.77922 42.8784 8.67712 43.1938 11.022C43.5 13.3004 43.5 16.2117 43.5 19.8872V28.1128C43.5 31.7884 43.5 34.6996 43.1938 36.978C42.8784 39.3228 42.2142 41.2208 40.7176 42.7176C39.2208 44.2142 37.3228 44.8784 34.978 45.1938C32.6996 45.5 29.7884 45.5 26.1128 45.5H21.8872C18.2117 45.5 15.3004 45.5 13.022 45.1938C10.6771 44.8784 8.77922 44.2142 7.28248 42.7176C5.78576 41.2208 5.12152 39.3228 4.80628 36.978C4.49994 34.6996 4.49996 31.7884 4.5 28.1128V19.8872C4.49996 16.2116 4.49994 13.3004 4.80628 11.022C5.12152 8.67712 5.78576 6.77922 7.28248 5.28248C8.77922 3.78576 10.6771 3.12152 13.022 2.80628C15.3004 2.49994 18.2116 2.49996 21.8872 2.5ZM13.4217 5.77952C11.4095 6.05004 10.2502 6.55738 9.4038 7.4038C8.55738 8.25022 8.05004 9.40952 7.77952 11.4217C7.50318 13.477 7.5 16.1864 7.5 20V28C7.5 31.8136 7.50318 34.523 7.77952 36.5784C8.05004 38.5904 8.55738 39.7498 9.4038 40.5962C10.2502 41.4426 11.4095 41.95 13.4217 42.2204C15.477 42.4968 18.1864 42.5 22 42.5H26C29.8136 42.5 32.523 42.4968 34.5784 42.2204C36.5904 41.95 37.7498 41.4426 38.5962 40.5962C39.4426 39.7498 39.95 38.5904 40.2204 36.5784C40.4968 34.523 40.5 31.8136 40.5 28V20C40.5 16.1864 40.4968 13.477 40.2204 11.4217C39.95 9.40952 39.4426 8.25022 38.5962 7.4038C37.7498 6.55738 36.5904 6.05004 34.5784 5.77952C32.523 5.50318 29.8136 5.5 26 5.5H22C18.1864 5.5 15.477 5.50318 13.4217 5.77952ZM14.5 16C14.5 15.1716 15.1716 14.5 16 14.5H32C32.8284 14.5 33.5 15.1716 33.5 16C33.5 16.8284 32.8284 17.5 32 17.5H16C15.1716 17.5 14.5 16.8284 14.5 16ZM14.5 24C14.5 23.1716 15.1716 22.5 16 22.5H32C32.8284 22.5 33.5 23.1716 33.5 24C33.5 24.8284 32.8284 25.5 32 25.5H16C15.1716 25.5 14.5 24.8284 14.5 24ZM14.5 32C14.5 31.1716 15.1716 30.5 16 30.5H26C26.8284 30.5 27.5 31.1716 27.5 32C27.5 32.8284 26.8284 33.5 26 33.5H16C15.1716 33.5 14.5 32.8284 14.5 32Z" fill="white"/>
</svg>
