<svg width="24" height="25" viewBox="0 0 24 25" fill="none" xmlns="http://www.w3.org/2000/svg">
<g clip-path="url(#clip0_45_746)">
<path d="M12 0.469727C5.37264 0.469727 0 5.84237 0 12.4697C0 18.0972 3.87456 22.8195 9.10128 24.1164V16.1369H6.62688V12.4697H9.10128V10.8896C9.10128 6.80525 10.9498 4.91213 14.9597 4.91213C15.72 4.91213 17.0318 5.06141 17.5685 5.21021V8.53421C17.2853 8.50445 16.7933 8.48957 16.1822 8.48957C14.2147 8.48957 13.4544 9.23501 13.4544 11.1728V12.4697H17.3741L16.7006 16.1369H13.4544V24.3819C19.3963 23.6643 24.0005 18.6051 24.0005 12.4697C24 5.84237 18.6274 0.469727 12 0.469727Z" fill="white"/>
</g>
<defs>
<clipPath id="clip0_45_746">
<rect width="24" height="24" fill="white" transform="translate(0 0.469727)"/>
</clipPath>
</defs>
</svg>
