<svg width="24" height="25" viewBox="0 0 24 25" fill="none" xmlns="http://www.w3.org/2000/svg">
<g clip-path="url(#clip0_45_748)">
<path d="M12 2.63066C15.2063 2.63066 15.5859 2.64473 16.8469 2.70098C18.0188 2.75254 18.6516 2.94941 19.0734 3.11348C19.6313 3.3291 20.0344 3.5916 20.4516 4.00879C20.8734 4.43066 21.1313 4.8291 21.3469 5.38691C21.5109 5.80879 21.7078 6.44629 21.7594 7.61348C21.8156 8.8791 21.8297 9.25879 21.8297 12.4604C21.8297 15.6666 21.8156 16.0463 21.7594 17.3072C21.7078 18.4791 21.5109 19.1119 21.3469 19.5338C21.1313 20.0916 20.8687 20.4947 20.4516 20.9119C20.0297 21.3338 19.6313 21.5916 19.0734 21.8072C18.6516 21.9713 18.0141 22.1682 16.8469 22.2197C15.5813 22.276 15.2016 22.29 12 22.29C8.79375 22.29 8.41406 22.276 7.15313 22.2197C5.98125 22.1682 5.34844 21.9713 4.92656 21.8072C4.36875 21.5916 3.96563 21.3291 3.54844 20.9119C3.12656 20.49 2.86875 20.0916 2.65313 19.5338C2.48906 19.1119 2.29219 18.4744 2.24063 17.3072C2.18438 16.0416 2.17031 15.6619 2.17031 12.4604C2.17031 9.2541 2.18438 8.87441 2.24063 7.61348C2.29219 6.4416 2.48906 5.80879 2.65313 5.38691C2.86875 4.8291 3.13125 4.42598 3.54844 4.00879C3.97031 3.58691 4.36875 3.3291 4.92656 3.11348C5.34844 2.94941 5.98594 2.75254 7.15313 2.70098C8.41406 2.64473 8.79375 2.63066 12 2.63066ZM12 0.469727C8.74219 0.469727 8.33438 0.483789 7.05469 0.540039C5.77969 0.596289 4.90313 0.802539 4.14375 1.09785C3.35156 1.40723 2.68125 1.81504 2.01563 2.48535C1.34531 3.15098 0.9375 3.82129 0.628125 4.60879C0.332812 5.37285 0.126563 6.24473 0.0703125 7.51973C0.0140625 8.8041 0 9.21191 0 12.4697C0 15.7275 0.0140625 16.1354 0.0703125 17.415C0.126563 18.69 0.332812 19.5666 0.628125 20.326C0.9375 21.1182 1.34531 21.7885 2.01563 22.4541C2.68125 23.1197 3.35156 23.5322 4.13906 23.8369C4.90313 24.1322 5.775 24.3385 7.05 24.3947C8.32969 24.451 8.7375 24.465 11.9953 24.465C15.2531 24.465 15.6609 24.451 16.9406 24.3947C18.2156 24.3385 19.0922 24.1322 19.8516 23.8369C20.6391 23.5322 21.3094 23.1197 21.975 22.4541C22.6406 21.7885 23.0531 21.1182 23.3578 20.3307C23.6531 19.5666 23.8594 18.6947 23.9156 17.4197C23.9719 16.14 23.9859 15.7322 23.9859 12.4744C23.9859 9.2166 23.9719 8.80879 23.9156 7.5291C23.8594 6.2541 23.6531 5.37754 23.3578 4.61816C23.0625 3.82129 22.6547 3.15098 21.9844 2.48535C21.3188 1.81973 20.6484 1.40723 19.8609 1.10254C19.0969 0.807227 18.225 0.600977 16.95 0.544727C15.6656 0.483789 15.2578 0.469727 12 0.469727Z" fill="white"/>
<path d="M12 6.30566C8.59688 6.30566 5.83594 9.0666 5.83594 12.4697C5.83594 15.8729 8.59688 18.6338 12 18.6338C15.4031 18.6338 18.1641 15.8729 18.1641 12.4697C18.1641 9.0666 15.4031 6.30566 12 6.30566ZM12 16.4682C9.79219 16.4682 8.00156 14.6775 8.00156 12.4697C8.00156 10.2619 9.79219 8.47129 12 8.47129C14.2078 8.47129 15.9984 10.2619 15.9984 12.4697C15.9984 14.6775 14.2078 16.4682 12 16.4682Z" fill="white"/>
<path d="M19.8469 6.06187C19.8469 6.85874 19.2 7.50093 18.4078 7.50093C17.6109 7.50093 16.9688 6.85406 16.9688 6.06187C16.9688 5.26499 17.6156 4.6228 18.4078 4.6228C19.2 4.6228 19.8469 5.26968 19.8469 6.06187Z" fill="white"/>
</g>
<defs>
<clipPath id="clip0_45_748">
<rect width="24" height="24" fill="white" transform="translate(0 0.469727)"/>
</clipPath>
</defs>
</svg>
