<svg width="20" height="21" viewBox="0 0 20 21" fill="none" xmlns="http://www.w3.org/2000/svg">
<g opacity="0.9">
<path d="M18.75 18C18.75 18 20 18 20 16.75C20 15.5 18.75 11.75 13.75 11.75C8.75 11.75 7.5 15.5 7.5 16.75C7.5 18 8.75 18 8.75 18H18.75ZM8.7775 16.75L8.75 16.745C8.75125 16.415 8.95875 15.4575 9.7 14.595C10.39 13.7863 11.6025 13 13.75 13C15.8962 13 17.1087 13.7875 17.8 14.595C18.5413 15.4575 18.7475 16.4163 18.75 16.745L18.74 16.7475L18.7225 16.75H8.7775ZM13.75 9.25C14.413 9.25 15.0489 8.98661 15.5178 8.51777C15.9866 8.04893 16.25 7.41304 16.25 6.75C16.25 6.08696 15.9866 5.45107 15.5178 4.98223C15.0489 4.51339 14.413 4.25 13.75 4.25C13.087 4.25 12.4511 4.51339 11.9822 4.98223C11.5134 5.45107 11.25 6.08696 11.25 6.75C11.25 7.41304 11.5134 8.04893 11.9822 8.51777C12.4511 8.98661 13.087 9.25 13.75 9.25ZM17.5 6.75C17.5 7.24246 17.403 7.73009 17.2145 8.18506C17.0261 8.64003 16.7499 9.05343 16.4017 9.40165C16.0534 9.74987 15.64 10.0261 15.1851 10.2145C14.7301 10.403 14.2425 10.5 13.75 10.5C13.2575 10.5 12.7699 10.403 12.3149 10.2145C11.86 10.0261 11.4466 9.74987 11.0983 9.40165C10.7501 9.05343 10.4739 8.64003 10.2855 8.18506C10.097 7.73009 10 7.24246 10 6.75C10 5.75544 10.3951 4.80161 11.0983 4.09835C11.8016 3.39509 12.7554 3 13.75 3C14.7446 3 15.6984 3.39509 16.4017 4.09835C17.1049 4.80161 17.5 5.75544 17.5 6.75ZM8.67 12.1C8.1697 11.9436 7.65438 11.8402 7.1325 11.7913C6.83922 11.7626 6.54467 11.7489 6.25 11.75C1.25 11.75 0 15.5 0 16.75C0 17.5833 0.416667 18 1.25 18H6.52C6.33478 17.6097 6.24237 17.1819 6.25 16.75C6.25 15.4875 6.72125 14.1975 7.6125 13.12C7.91625 12.7525 8.27 12.4087 8.67 12.1ZM6.15 13C5.41066 14.1118 5.01106 15.4148 5 16.75H1.25C1.25 16.425 1.455 15.4625 2.2 14.595C2.88125 13.8 4.065 13.025 6.15 13.0013V13ZM1.875 7.375C1.875 6.38044 2.27009 5.42661 2.97335 4.72335C3.67661 4.02009 4.63044 3.625 5.625 3.625C6.61956 3.625 7.57339 4.02009 8.27665 4.72335C8.97991 5.42661 9.375 6.38044 9.375 7.375C9.375 8.36956 8.97991 9.32339 8.27665 10.0267C7.57339 10.7299 6.61956 11.125 5.625 11.125C4.63044 11.125 3.67661 10.7299 2.97335 10.0267C2.27009 9.32339 1.875 8.36956 1.875 7.375ZM5.625 4.875C4.96196 4.875 4.32607 5.13839 3.85723 5.60723C3.38839 6.07607 3.125 6.71196 3.125 7.375C3.125 8.03804 3.38839 8.67393 3.85723 9.14277C4.32607 9.61161 4.96196 9.875 5.625 9.875C6.28804 9.875 6.92393 9.61161 7.39277 9.14277C7.86161 8.67393 8.125 8.03804 8.125 7.375C8.125 6.71196 7.86161 6.07607 7.39277 5.60723C6.92393 5.13839 6.28804 4.875 5.625 4.875Z" fill="#0A2262" fill-opacity="0.65"/>
</g>
</svg>
