<svg width="20" height="21" viewBox="0 0 20 21" fill="none" xmlns="http://www.w3.org/2000/svg">
<g opacity="0.9" clip-path="url(#clip0_84_852)">
<path d="M8.15715 6.65703C5.41429 4.7856 2.85715 6.21417 0.714294 8.41417L5.45715 11.2713M13.8429 12.3427C15.7143 15.0856 14.2857 17.6427 12.0857 19.7856L9.22858 15.0427" stroke="#0A2262" stroke-opacity="0.65" stroke-linecap="round" stroke-linejoin="round"/>
<path d="M7.54287 7.67142L12.8286 12.9571M5.45715 11.2571L9.24287 15.0429C12.2714 13.2286 15.7143 11.4714 17.2857 9.84285C20.6857 6.44285 18.7143 1.78571 18.7143 1.78571C18.7143 1.78571 14.0572 -0.185719 10.6572 3.21428C9.02858 4.78571 7.25715 8.24285 5.45715 11.2571Z" stroke="#0A2262" stroke-opacity="0.65" stroke-linecap="round" stroke-linejoin="round"/>
<path d="M15 6.21422C15.1894 6.21422 15.3711 6.13896 15.5051 6.00501C15.639 5.87105 15.7143 5.68937 15.7143 5.49993C15.7143 5.31049 15.639 5.12881 15.5051 4.99485C15.3711 4.8609 15.1894 4.78564 15 4.78564C14.8106 4.78564 14.6289 4.8609 14.4949 4.99485C14.361 5.12881 14.2857 5.31049 14.2857 5.49993C14.2857 5.68937 14.361 5.87105 14.4949 6.00501C14.6289 6.13896 14.8106 6.21422 15 6.21422ZM5.25715 18.2714C4.42858 19.0714 0.714294 19.7856 0.714294 19.7856C0.714294 19.7856 1.42858 16.0714 2.22858 15.2428C2.52442 14.9265 2.9091 14.7072 3.33197 14.6138C3.75485 14.5204 4.1961 14.5572 4.59766 14.7194C4.99921 14.8816 5.34224 15.1616 5.58159 15.5225C5.82094 15.8834 5.9454 16.3083 5.93858 16.7414C5.93336 17.0288 5.87033 17.3123 5.75326 17.5749C5.63619 17.8375 5.46747 18.0753 5.25715 18.2714Z" stroke="#0A2262" stroke-opacity="0.65" stroke-linecap="round" stroke-linejoin="round"/>
</g>
<defs>
<clipPath id="clip0_84_852">
<rect width="20" height="20" fill="white" transform="translate(0 0.5)"/>
</clipPath>
</defs>
</svg>
