<svg width="20" height="21" viewBox="0 0 20 21" fill="none" xmlns="http://www.w3.org/2000/svg">
<g opacity="0.9">
<path d="M3.84667 17.1666C3.46278 17.1666 3.1425 17.0383 2.88583 16.7816C2.62917 16.5249 2.50056 16.2044 2.5 15.8199V7.67992C2.5 7.29603 2.62861 6.97575 2.88583 6.71909C3.14306 6.46242 3.46306 6.33381 3.84583 6.33325H7.5V5.17909C7.5 4.79575 7.62861 4.47548 7.88583 4.21825C8.14306 3.96103 8.46333 3.8327 8.84667 3.83325H11.1542C11.5375 3.83325 11.8578 3.96159 12.115 4.21825C12.3722 4.47492 12.5006 4.7952 12.5 5.17909V6.33325H16.1542C16.5375 6.33325 16.8575 6.46186 17.1142 6.71909C17.3708 6.97631 17.4994 7.29659 17.5 7.67992V15.8208C17.5 16.2041 17.3714 16.5244 17.1142 16.7816C16.8569 17.0388 16.5369 17.1671 16.1542 17.1666H3.84667ZM3.84667 16.3333H16.1542C16.2819 16.3333 16.3994 16.2799 16.5067 16.1733C16.6139 16.0666 16.6672 15.9488 16.6667 15.8199V7.67992C16.6667 7.55159 16.6133 7.43381 16.5067 7.32659C16.4 7.21937 16.2825 7.16603 16.1542 7.16659H3.84583C3.71806 7.16659 3.60056 7.21992 3.49333 7.32659C3.38611 7.43325 3.33278 7.55103 3.33333 7.67992V15.8208C3.33333 15.9485 3.38667 16.066 3.49333 16.1733C3.6 16.2805 3.7175 16.3338 3.84583 16.3333M8.33333 6.33325H11.6667V5.17909C11.6667 5.05131 11.6133 4.93381 11.5067 4.82659C11.4 4.71936 11.2825 4.66603 11.1542 4.66659H8.84583C8.71806 4.66659 8.60056 4.71992 8.49333 4.82659C8.38611 4.93325 8.33278 5.05075 8.33333 5.17909V6.33325Z" fill="#0A2262" fill-opacity="0.65"/>
<path d="M3.84667 16.3333H16.1542C16.2819 16.3333 16.3994 16.2799 16.5067 16.1733C16.6139 16.0666 16.6672 15.9488 16.6667 15.8199V7.67992C16.6667 7.55159 16.6133 7.43381 16.5067 7.32659C16.4 7.21937 16.2825 7.16603 16.1542 7.16659H3.84583C3.71806 7.16659 3.60056 7.21992 3.49333 7.32659C3.38611 7.43325 3.33278 7.55103 3.33333 7.67992V15.8208C3.33333 15.9485 3.38667 16.066 3.49333 16.1733C3.6 16.2805 3.7175 16.3338 3.84583 16.3333M3.33333 16.3333V7.16659M3.84667 17.1666C3.46278 17.1666 3.1425 17.0383 2.88583 16.7816C2.62917 16.5249 2.50056 16.2044 2.5 15.8199V7.67992C2.5 7.29603 2.62861 6.97575 2.88583 6.71909C3.14306 6.46242 3.46306 6.33381 3.84583 6.33325H7.5V5.17909C7.5 4.79575 7.62861 4.47548 7.88583 4.21825C8.14306 3.96103 8.46333 3.8327 8.84667 3.83325H11.1542C11.5375 3.83325 11.8578 3.96159 12.115 4.21825C12.3722 4.47492 12.5006 4.7952 12.5 5.17909V6.33325H16.1542C16.5375 6.33325 16.8575 6.46186 17.1142 6.71909C17.3708 6.97631 17.4994 7.29659 17.5 7.67992V15.8208C17.5 16.2041 17.3714 16.5244 17.1142 16.7816C16.8569 17.0388 16.5369 17.1671 16.1542 17.1666H3.84667ZM8.33333 6.33325H11.6667V5.17909C11.6667 5.05131 11.6133 4.93381 11.5067 4.82659C11.4 4.71936 11.2825 4.66603 11.1542 4.66659H8.84583C8.71806 4.66659 8.60056 4.71992 8.49333 4.82659C8.38611 4.93325 8.33278 5.05075 8.33333 5.17909V6.33325Z" stroke="#0A2262" stroke-opacity="0.65" stroke-width="0.5"/>
</g>
</svg>
