<svg width="24" height="25" viewBox="0 0 24 25" fill="none" xmlns="http://www.w3.org/2000/svg">
<path d="M23.7609 7.66978C23.7609 7.66978 23.5266 6.01509 22.8047 5.28853C21.8906 4.33228 20.8688 4.32759 20.4 4.27134C17.0438 4.02759 12.0047 4.02759 12.0047 4.02759H11.9953C11.9953 4.02759 6.95625 4.02759 3.6 4.27134C3.13125 4.32759 2.10938 4.33228 1.19531 5.28853C0.473438 6.01509 0.24375 7.66978 0.24375 7.66978C0.24375 7.66978 0 9.61509 0 11.5557V13.3745C0 15.3151 0.239062 17.2604 0.239062 17.2604C0.239062 17.2604 0.473437 18.9151 1.19062 19.6417C2.10469 20.5979 3.30469 20.5651 3.83906 20.6682C5.76094 20.851 12 20.9073 12 20.9073C12 20.9073 17.0438 20.8979 20.4 20.6588C20.8688 20.6026 21.8906 20.5979 22.8047 19.6417C23.5266 18.9151 23.7609 17.2604 23.7609 17.2604C23.7609 17.2604 24 15.3198 24 13.3745V11.5557C24 9.61509 23.7609 7.66978 23.7609 7.66978ZM9.52031 15.5823V8.83696L16.0031 12.2213L9.52031 15.5823Z" fill="white"/>
</svg>
